<svg width="800" height="600" xmlns="http://www.w3.org/2000/svg">

 <g>
  <title>Layer 1</title>
  <g>
   <path fill="#ffffff" d="m397.5,292l8,0a2,2 0 0 1 2,2l0,10a2,2 0 0 1 -2,2a2,2 0 0 1 -2,2l-8,0a2,2 0 0 1 -2,-2l1,0a1,1 0 0 0 1,1l8,0a1,1 0 0 0 1,-1l0,-10a1,1 0 0 0 -1,-1l-8,0a1,1 0 0 0 -1,1l-1,0a2,2 0 0 1 2,-2l8,0a2,2 0 0 1 2,2l0,9a1,1 0 0 0 1,-1l0,-10a1,1 0 0 0 -1,-1l-8,0a1,1 0 0 0 -1,1l-1,0a2,2 0 0 1 2,-2z"/>
   <path fill="#ffffff" d="m393.5,298l0,-0.5a0.5,0.5 0 0 1 1,0l0,0.5l0.5,0a0.5,0.5 0 0 1 0,1l-2,0a0.5,0.5 0 0 1 0,-1l0.5,0zm0,3l0,-0.5a0.5,0.5 0 0 1 1,0l0,0.5l0.5,0a0.5,0.5 0 0 1 0,1l-2,0a0.5,0.5 0 0 1 0,-1l0.5,0zm0,2.5l0,0.5l-0.5,0a0.5,0.5 0 0 0 0,1l2,0a0.5,0.5 0 0 0 0,-1l-0.5,0l0,-0.5a0.5,0.5 0 0 0 -1,0z"/>
  </g>
 </g>
</svg>