<svg xmlns="http://www.w3.org/2000/svg" width="15" height="16" fill="currentColor" style=""><rect id="backgroundrect" width="100%" height="100%" x="0" y="0" fill="none" stroke="none"/>
  
  
<g class="currentLayer" style=""><title>Layer 1</title><path d="M5,0 h8 a2,2 0 0 1 2,2 v10 a2,2 0 0 1 -2,2 a2,2 0 0 1 -2,2 H3 a2,2 0 0 1 -2,-2 h1 a1,1 0 0 0 1,1 h8 a1,1 0 0 0 1,-1 V4 a1,1 0 0 0 -1,-1 H3 a1,1 0 0 0 -1,1 H1 a2,2 0 0 1 2,-2 h8 a2,2 0 0 1 2,2 v9 a1,1 0 0 0 1,-1 V2 a1,1 0 0 0 -1,-1 H5 a1,1 0 0 0 -1,1 H3 a2,2 0 0 1 2,-2 z" id="svg_1" class="selected" fill="#ffffff" fill-opacity="1"/><path d="M1,6 v-0.5 a0.5,0.5 0 0 1 1,0 V6 h0.5 a0.5,0.5 0 0 1 0,1 h-2 a0.5,0.5 0 0 1 0,-1 H1 zm0,3 v-0.5 a0.5,0.5 0 0 1 1,0 V9 h0.5 a0.5,0.5 0 0 1 0,1 h-2 a0.5,0.5 0 0 1 0,-1 H1 zm0,2.5 v0.5 H0.5 a0.5,0.5 0 0 0 0,1 h2 a0.5,0.5 0 0 0 0,-1 H2 v-0.5 a0.5,0.5 0 0 0 -1,0 z" id="svg_2" class="" fill="#ffffff" fill-opacity="1"/></g></svg>